<svg xmlns="http://www.w3.org/2000/svg" xmlns:xlink="http://www.w3.org/1999/xlink" width="1920" zoomAndPan="magnify" viewBox="0 0 1440 809.999993" height="1080" preserveAspectRatio="xMidYMid meet" version="1.0"><defs><clipPath id="1ee3fd3c98"><path d="M 604.5 289.5 L 835 289.5 L 835 520 L 604.5 520 Z M 604.5 289.5 " clip-rule="nonzero"/></clipPath></defs><path fill="#ffffff" d="M 719.695312 447.5625 C 696.058594 447.5625 676.828125 428.332031 676.828125 404.695312 C 676.828125 381.058594 696.058594 361.828125 719.695312 361.828125 C 743.332031 361.828125 762.558594 381.058594 762.558594 404.695312 C 762.558594 428.332031 743.332031 447.5625 719.695312 447.5625 Z M 719.695312 346.679688 C 687.703125 346.679688 661.679688 372.707031 661.679688 404.695312 C 661.679688 436.683594 687.703125 462.710938 719.695312 462.710938 C 751.6875 462.710938 777.710938 436.683594 777.710938 404.695312 C 777.710938 372.707031 751.6875 346.679688 719.695312 346.679688 " fill-opacity="1" fill-rule="nonzero"/><g clip-path="url(#1ee3fd3c98)"><path fill="#ffffff" d="M 808.160156 337.121094 C 808.160156 340.199219 805.640625 342.71875 802.5625 342.71875 L 786.464844 342.71875 C 783.386719 342.71875 780.867188 340.199219 780.867188 337.121094 L 780.867188 321.023438 C 780.867188 317.945312 783.386719 315.425781 786.464844 315.425781 L 802.5625 315.425781 C 805.640625 315.425781 808.160156 317.945312 808.160156 321.023438 Z M 719.695312 479.121094 C 678.65625 479.121094 645.269531 445.734375 645.269531 404.695312 C 645.269531 363.65625 678.65625 330.269531 719.695312 330.269531 C 760.734375 330.269531 794.121094 363.65625 794.121094 404.695312 C 794.121094 445.734375 760.734375 479.121094 719.695312 479.121094 Z M 796.097656 289.5 L 643.292969 289.5 C 621.902344 289.5 604.5 306.902344 604.5 328.292969 L 604.5 481.09375 C 604.5 502.488281 621.902344 519.890625 643.292969 519.890625 L 796.097656 519.890625 C 817.488281 519.890625 834.890625 502.488281 834.890625 481.09375 L 834.890625 328.292969 C 834.890625 306.902344 817.488281 289.5 796.097656 289.5 " fill-opacity="1" fill-rule="nonzero"/></g></svg>